<svg xmlns="http://www.w3.org/2000/svg" xmlns:xlink="http://www.w3.org/1999/xlink" width="78" height="92" viewBox="0 0 78 92">
  <defs>
    <linearGradient id="linear-gradient" x1="0.632" y1="0.5" x2="-0.468" y2="1.283" gradientUnits="objectBoundingBox">
      <stop offset="0" stop-color="#64776e"/>
      <stop offset="1" stop-color="#323c37"/>
    </linearGradient>
    <clipPath id="clip-path">
      <rect id="Rectangle_9" data-name="Rectangle 9" width="29.674" height="20.69" fill="none"/>
    </clipPath>
  </defs>
  <g id="Group_85" data-name="Group 85" transform="translate(-1053 3)">
    <path id="Path_30" data-name="Path 30" d="M6,0H84V89L43.473,80.984,6,89Z" transform="translate(1047)" fill="url(#linear-gradient)"/>
    <g id="Group_3" data-name="Group 3" transform="translate(956.035 -476.365)">
      <g id="Group_2" data-name="Group 2" transform="translate(119.965 487.704)" clip-path="url(#clip-path)">
        <path id="Path_1" data-name="Path 1" d="M139.33,498.895c2.3,1.562,8.231,6.191,8.231,6.191a.7.7,0,0,1,.133.822.529.529,0,0,1-.723.237s-6.316-4.595-8.734-6.264a.211.211,0,0,0-.254.017l-2.646,2.134a.875.875,0,0,1-.538.185.857.857,0,0,1-.538-.185l-2.68-2.16a.166.166,0,0,0-.2,0c-2.392,1.669-8.678,6.277-8.678,6.277a.625.625,0,0,1-.8-.237.707.707,0,0,1,.133-.822s5.942-4.617,8.2-6.165c.129-.09,0-.219,0-.219l-8.381-7.607a.831.831,0,0,1-.207-1.028.61.61,0,0,1,.525-.306.686.686,0,0,1,.439.163l11.913,10.528a.471.471,0,0,0,.555,0l11.913-10.528a.686.686,0,0,1,.439-.163.61.61,0,0,1,.525.306.826.826,0,0,1-.207,1.028l-8.4,7.628S139.227,498.826,139.33,498.895Zm9.082-11.191H121.2a1.247,1.247,0,0,0-1.239,1.248v18.156a1.244,1.244,0,0,0,1.239,1.248h27.209a1.244,1.244,0,0,0,1.239-1.248V488.952A1.247,1.247,0,0,0,148.413,487.7Z" transform="translate(-119.965 -487.704)" fill="#fff"/>
      </g>
    </g>
    <g id="Path_31" data-name="Path 31" transform="translate(1049 -3)" fill="none">
      <path d="M7,0H79V89L42.473,80.984,7,89Z" stroke="none"/>
      <path d="M 8 1 L 8 87.74881744384766 L 42.25224685668945 80.00896453857422 L 42.4694709777832 79.95988464355469 L 42.6870002746582 80.00762176513672 L 78 87.75676727294922 L 78 73.46900939941406 L 78 1 L 8 1 M 7 0 L 79 0 L 79 73.46900939941406 L 79 89 L 42.47266006469727 80.984375 L 7 89 L 7 0 Z" stroke="none" fill="#fff"/>
    </g>
  </g>
</svg>
