<svg xmlns="http://www.w3.org/2000/svg" width="78" height="92"><defs><linearGradient id="a" x1=".632" y1=".5" x2="-.468" y2="1.283" gradientUnits="objectBoundingBox"><stop offset="0" stop-color="#64776e"/><stop offset="1" stop-color="#323c37"/></linearGradient><clipPath id="b"><path data-name="Rectangle 9" fill="none" d="M0 0h29.674v20.69H0z"/></clipPath></defs><g data-name="Group 85"><path data-name="Path 30" d="M6 0h78v89l-40.527-8.016L6 89z" transform="translate(-6 3)" fill="url(#a)"/><g data-name="Group 3"><g data-name="Group 2" transform="translate(23 14.339)" clip-path="url(#b)"><path data-name="Path 1" d="M19.365 11.191c2.3 1.562 8.231 6.191 8.231 6.191a.7.7 0 01.133.822.529.529 0 01-.723.237s-6.316-4.595-8.734-6.264a.211.211 0 00-.254.017l-2.646 2.134a.875.875 0 01-.538.185.857.857 0 01-.538-.185l-2.68-2.16a.166.166 0 00-.2 0c-2.392 1.669-8.678 6.277-8.678 6.277a.625.625 0 01-.8-.237.707.707 0 01.133-.822s5.942-4.617 8.2-6.165c.129-.09 0-.219 0-.219L1.89 3.395a.831.831 0 01-.207-1.028.61.61 0 01.525-.306.686.686 0 01.439.163L14.56 12.752a.471.471 0 00.555 0L27.028 2.224a.686.686 0 01.439-.163.61.61 0 01.525.306.826.826 0 01-.207 1.028l-8.4 7.628s-.123.099-.02.168zM28.447 0H1.235A1.247 1.247 0 00-.004 1.248v18.156a1.244 1.244 0 001.239 1.248h27.209a1.244 1.244 0 001.239-1.248V1.248a1.247 1.247 0 00-1.235-1.252z" fill="#fff"/></g></g><g data-name="Path 31" fill="none"><path d="M3 0h72v89l-36.527-8.016L3 89z"/><path d="M4 1v86.749l34.252-7.74.217-.05.218.049L74 87.757V1H4M3 0h72v89l-36.527-8.016L3 89V0z" fill="#fff"/></g></g></svg>