<svg xmlns="http://www.w3.org/2000/svg" width="210.364" height="158.227" viewBox="0 0 210.364 158.227"><defs><style>.a,.b{fill:#fff;}.a{fill-rule:evenodd;}</style></defs><g transform="translate(0 -0.001)"><path class="a" d="M126.765,57.076a38.494,38.494,0,0,1-22.048,7.156c.159,10.675,1.353,17.133,2.42,25.906H95.923a208.507,208.507,0,0,0,2.41-26.065C75.492,61.3,65.07,48.8,66.5,29.595,68.093,8.35,87.837-2.632,89.01.539,89.824,3,85.48,3.572,80.607,10.9,69.752,27.248,76.443,50.428,98.28,51.675,97.4,38.7,96.937,27.957,96.726,20.484c-.169-6.152-.1-13.18,3.329-16.647,4.524-4.577,16.552-5.285,27.174,2.114C143.962,17.577,142.3,45.3,126.765,57.076Zm2.854-14.491c6.49-8.234,5.073-20.568-1.585-27.069-4.408-4.3-8.878-5.285-14.871-4.661-5.433,1.057-6.426,3.171-7.335,9.735-.708,10.284-1.12,21.668-1.12,31.128,11.257.349,19.025-1.691,24.913-9.164Z" transform="translate(3.78 0)"/><path class="b" d="M40.358,142.843a9.118,9.118,0,0,0,.93-.063s.116.063.127.137,0,.92,0,1.131-.074.3-.169.3-.18-.159-.2-.264c-.137-.592-.433-.75-.676-.793a9.826,9.826,0,0,0-1.469-.063s-.127,0-.137.3-.053,1.733,0,2.325a.1.1,0,0,0,.106.106h.846c.75,0,.729,0,.93-.507.063-.159.137-.275.233-.275s.116.18.106.3v1.448c0,.264,0,.317-.137.317s-.169-.127-.2-.233c-.137-.465-.275-.539-.687-.571s-.729,0-1.057,0c0,0-.137.106-.137.127a14.1,14.1,0,0,0,0,1.48,7.474,7.474,0,0,0,0,.867.391.391,0,0,0,.233.254,4.9,4.9,0,0,0,.856.063,3.17,3.17,0,0,0,.972-.1,1.617,1.617,0,0,0,.835-.782c.148-.275.243-.37.328-.37s.1.222.085.307a8.233,8.233,0,0,1-.4,1.226c0,.074-.2.137-.254.137H36.679c-.2,0-.359,0-.359-.137s.137-.169.317-.211c.539-.127.676-.233.719-.8s.085-1.247.085-2.558v-2.04a.611.611,0,0,0-.56-.676c-.222,0-.338-.085-.338-.19s.18-.159.328-.159h1.913Z" transform="translate(2.069 8.133)"/><path class="b" d="M43.472,142.79h2.463c.2,0,.307,0,.307.116s-.106.19-.317.264a.2.2,0,0,0-.137.317,18.771,18.771,0,0,0,1.057,1.818.063.063,0,0,0,.106,0,18.722,18.722,0,0,0,1.342-1.712c.106-.211-.053-.338-.381-.412s-.275-.159-.275-.211.085-.137.285-.137h2.093c.137,0,.264,0,.264.116s-.148.19-.264.211a2.3,2.3,0,0,0-1.385.782c-.423.507-.93,1.057-1.406,1.733a.254.254,0,0,0,0,.159c.085.233,1.12,1.829,1.522,2.42a2.019,2.019,0,0,0,1.4,1.057.229.229,0,0,1,.254.2c0,.053-.116.148-.359.148S48.7,149.6,48.2,149.6h-.9c-.137,0-.264-.085-.264-.148s.063-.148.243-.2a1.534,1.534,0,0,0,.317-.127.169.169,0,0,0,.053-.18c-.19-.349-1.163-1.966-1.289-2.114s-.085,0-.106,0a15.338,15.338,0,0,0-1.057,1.4c-.423.7-.275.846.137.983a.251.251,0,0,1,.264.2c0,.063-.127.159-.264.159H43.219c-.243,0-.349,0-.349-.127s.127-.19.381-.243a2.346,2.346,0,0,0,1.2-.74c.307-.338,1.057-1.216,1.6-1.966a.127.127,0,0,0,0-.148A21.214,21.214,0,0,0,44.4,143.71a1.311,1.311,0,0,0-.909-.56c-.2,0-.317-.148-.307-.222S43.24,142.79,43.472,142.79Z" transform="translate(2.442 8.134)"/><path class="b" d="M56.3,142.839a1.712,1.712,0,0,0,.814-.169c.085,0,.127-.085.169-.085s.137.116.1.264a8.022,8.022,0,0,0-.222,1.226c0,.1-.074.275-.2.275s-.137-.053-.18-.328c-.106-.6-.243-.7-.761-.719H54.729a.148.148,0,0,0-.106.127V148.5c0,.338.116.55.824.7a.289.289,0,0,1,.264.211c0,.063-.18.137-.3.137H53.851c-.328,0-1.142.063-1.321.063s-.328,0-.328-.127.127-.19.233-.222c.687-.169.729-.307.782-1.057s.1-2.727.1-3.541v-1.237a.148.148,0,0,0-.116-.148H52a.909.909,0,0,0-.581.243,2.853,2.853,0,0,0-.359.56c-.127.211-.19.275-.233.275a.29.29,0,0,1-.159-.233,13.177,13.177,0,0,0,.2-1.427s.1-.211.169-.211.116.085.18.169a.856.856,0,0,0,.433.169c.233,0,1.628.063,2.346.063S56,142.86,56.3,142.839Z" transform="translate(2.886 8.116)"/><path class="b" d="M62.911,145.865l-.412.222c-.053,0,0,.106,0,.148a16.911,16.911,0,0,0,1.6,2.494,1.5,1.5,0,0,0,.909.528.21.21,0,0,1,.19.148c0,.042-.1.137-.169.159a2.959,2.959,0,0,1-.708.085,1.786,1.786,0,0,1-1.6-.687c-.3-.4-.835-1.268-1.279-2.029a1.861,1.861,0,0,0-.338-.444.962.962,0,0,0-.507-.137.148.148,0,0,0-.116.106v2.114c0,.5.106.56.592.687a.23.23,0,0,1,.254.2c0,.074-.2.159-.328.159-.37,0-.835-.063-1.353-.063H58.588c-.159,0-.338-.074-.338-.169s.116-.127.254-.169c.486-.148.6-.275.634-.613.063-.814.063-1.7.063-2.6a22.935,22.935,0,0,0-.053-2.315c-.053-.285-.116-.412-.613-.528a.259.259,0,0,1-.264-.2c0-.085.127-.148.307-.148h2.611a3.055,3.055,0,0,1,1.839.465,1.712,1.712,0,0,1,.571,1.258,1.659,1.659,0,0,1-.687,1.332Zm-1.057-2.357a1.215,1.215,0,0,0-.856-.37,1.639,1.639,0,0,0-.4.074.5.5,0,0,0-.127.222c0,.359-.074,2.209,0,2.484a.159.159,0,0,0,.137.127,2.717,2.717,0,0,0,1.142-.233,1.437,1.437,0,0,0,.592-1.184,1.67,1.67,0,0,0-.454-1.12Z" transform="translate(3.318 8.134)"/><path class="b" d="M69.37,142.9c.1.254.285.793.423,1.184.581,1.638,1.3,3.562,1.511,4.09.349.856.581.962.941,1.057.18.053.275.116.275.19s-.106.159-.349.159H69.73c-.211,0-.338-.063-.338-.159s.074-.137.275-.18c.433-.106.444-.275.423-.444a9.1,9.1,0,0,0-.486-1.543.317.317,0,0,0-.254-.159H67.574c-.148,0-.1.074-.116.106A5.285,5.285,0,0,0,67,148.739c0,.211.106.359.5.465.211,0,.307.116.307.211s-.148.137-.317.137h-1.9c-.169,0-.307-.063-.307-.127s0-.148.264-.211c.539-.148.655-.317.962-.941s1.4-3.53,1.839-4.577a.719.719,0,0,0,0-.19v-.085a6.168,6.168,0,0,0,.55-.655.275.275,0,0,1,.19-.137A.367.367,0,0,1,69.37,142.9Zm0,3.594c-.159-.5-.624-1.776-.772-2.114,0-.074-.085,0-.116,0-.19.507-.7,1.839-.761,2.114a.085.085,0,0,0,.074.106h1.533a.085.085,0,0,0,.063-.106Z" transform="translate(3.718 8.124)"/><path class="b" d="M75.7,142.791h2.516c.137,0,.254,0,.254.127s-.074.169-.264.222c-.476.127-.465.275-.381.571.159.518,1.289,3.329,1.543,3.858h.1c.011,0,1.2-2.78,1.522-3.625.233-.624-.053-.666-.476-.824a.257.257,0,0,1-.233-.18c0-.063.116-.159.285-.159h1.85c.222,0,.317.063.317.148s-.106.169-.285.2a1.321,1.321,0,0,0-.962.888c-.233.518-.888,1.8-1.522,3.361-.349.835-.581,1.437-.793,2.114a.363.363,0,0,1-.285.275c-.106,0-.211-.18-.233-.254a13.923,13.923,0,0,0-.55-1.617c-.359-.962-1.173-2.917-1.575-3.879-.222-.5-.381-.729-.856-.867-.127,0-.275-.074-.275-.19S75.538,142.791,75.7,142.791Z" transform="translate(4.294 8.133)"/><path class="b" d="M84.381,143.972c0-.507,0-.666-.55-.793-.254-.063-.317-.137-.317-.211s.148-.148.338-.148h2.463c.18,0,.328,0,.328.148s-.148.18-.328.211c-.528.1-.56.37-.581.645s0,.634,0,2.452v2.051c0,.624.106.75.708.909.19,0,.3.116.3.222s-.2.137-.328.137a13.22,13.22,0,0,0-1.585,0,5.884,5.884,0,0,1-1.057,0c-.433,0-.328-.074-.328-.18s.1-.148.317-.2c.486-.116.56-.338.581-.793s0-1.49,0-2.389A13.829,13.829,0,0,0,84.381,143.972Z" transform="translate(4.752 8.135)"/><path class="b" d="M92.831,145.865l-.412.222v.148a16.911,16.911,0,0,0,1.6,2.494,1.479,1.479,0,0,0,.909.528.21.21,0,0,1,.19.148c0,.042-.1.137-.169.159a3,3,0,0,1-.708.085,1.776,1.776,0,0,1-1.6-.687c-.3-.4-.835-1.268-1.279-2.029a1.912,1.912,0,0,0-.338-.444.972.972,0,0,0-.507-.137.148.148,0,0,0-.116.106v2.114c0,.5.106.56.592.687a.23.23,0,0,1,.254.2c0,.074-.2.159-.328.159-.37,0-.835-.063-1.353-.063H88.508c-.159,0-.338-.074-.338-.169s.116-.127.254-.169c.486-.148.6-.275.634-.613.063-.814.063-1.7.063-2.6v-2.315c0-.285-.116-.412-.613-.528a.259.259,0,0,1-.264-.2c0-.085.127-.148.307-.148h2.611a3.055,3.055,0,0,1,1.839.465,1.723,1.723,0,0,1,.571,1.258A1.67,1.67,0,0,1,92.831,145.865Zm-1.057-2.357a1.216,1.216,0,0,0-.856-.37,1.639,1.639,0,0,0-.4.074.454.454,0,0,0-.127.222c0,.359-.074,2.209,0,2.484a.169.169,0,0,0,.137.127,2.706,2.706,0,0,0,1.142-.233,1.427,1.427,0,0,0,.592-1.184,1.67,1.67,0,0,0-.454-1.12Z" transform="translate(5.022 8.134)"/><path class="b" d="M100.813,142.906a4.052,4.052,0,0,0,.476.085.38.38,0,0,1,.127.243,11.915,11.915,0,0,1,.159,1.268c0,.137-.063.264-.18.264s-.137-.116-.2-.275a3.255,3.255,0,0,0-.4-.74,2.315,2.315,0,0,0-1.691-.719c-1.607,0-2.547,1.427-2.547,3.086a3.731,3.731,0,0,0,.444,1.9,2.6,2.6,0,0,0,2.22,1.342,1.353,1.353,0,0,0,.666-.211,1.057,1.057,0,0,0,.222-.74,6.965,6.965,0,0,0,0-.941c-.063-.243-.148-.454-.846-.518-.159,0-.307-.106-.307-.2s.148-.148.359-.148h1.268c.285,0,.835-.063,1.226-.063.2,0,.285.074.285.159s-.116.159-.243.2c-.359.1-.349.222-.37.37s0,.877,0,1.311c0,.148,0,.19.169.317s.116.106.116.18-.085.137-.159.159-.539.148-.962.233a11.945,11.945,0,0,1-1.564.211,4.344,4.344,0,0,1-2.833-.92,3.424,3.424,0,0,1-1.057-2.642,3.255,3.255,0,0,1,1.173-2.547,4.429,4.429,0,0,1,2.843-.962A6.891,6.891,0,0,1,100.813,142.906Z" transform="translate(5.422 8.123)"/><path class="b" d="M104.272,143.972c0-.507,0-.666-.55-.793-.254-.063-.317-.137-.317-.211s.148-.148.338-.148h2.463c.18,0,.328,0,.328.148s-.148.18-.328.211c-.528.1-.56.37-.581.645s0,.634,0,2.452v2.051c0,.624.106.75.7.909a.269.269,0,0,1,.3.222c0,.1-.2.137-.328.137a13.4,13.4,0,0,0-1.6,0,5.884,5.884,0,0,1-1.057,0c-.433,0-.328-.074-.328-.18s.1-.148.317-.2c.486-.116.56-.338.581-.793s.053-1.49.053-2.389A19.314,19.314,0,0,0,104.272,143.972Z" transform="translate(5.884 8.135)"/><path class="b" d="M108.091,142.8H109.7a.613.613,0,0,1,.233.137l.888,1.057c.518.634,2.59,2.78,3.171,3.382.053,0,.1,0,.1-.063.053-.307,0-1.5,0-2.389a6.28,6.28,0,0,0-.063-1.131c-.063-.275-.127-.454-.655-.592-.211,0-.349-.116-.349-.243s.116-.127.307-.127h1.934c.275,0,.254.063.254.137s-.074.159-.264.211c-.55.18-.6.37-.655.793s-.106,3.055-.106,3.964c0,.444.063,1.374.063,1.649a.243.243,0,0,1-.169.2c-.222,0-.476-.275-.571-.4s-.4-.507-.687-.856c-.994-1.215-2.727-3.033-3.668-4.143,0-.063-.116,0-.116,0v4.154c0,.338.159.518.666.676.222.063.3.137.3.2s-.148.159-.349.159h-1.977c-.148,0-.275,0-.275-.137s.127-.159.233-.19c.486-.148.74-.233.772-1.057.053-1.184.19-3.171.19-3.985,0-.423,0-.55-.063-.592a1.057,1.057,0,0,0-.814-.507c-.116,0-.275-.106-.275-.18S107.911,142.8,108.091,142.8Z" transform="translate(6.135 8.134)"/><path class="b" d="M126.3,146.1a3.488,3.488,0,0,1-1.332,2.875,3.974,3.974,0,0,1-2.315.761,3.742,3.742,0,0,1-2.759-1.131,3.509,3.509,0,0,1-.9-2.42,3.308,3.308,0,0,1,1.363-2.748,3.942,3.942,0,0,1,2.251-.761A3.509,3.509,0,0,1,126.3,146.1Zm-5.19-2.526a3.287,3.287,0,0,0-.74,2.378c0,1.628.994,3.393,2.537,3.393a1.522,1.522,0,0,0,1.057-.433,3.636,3.636,0,0,0,.814-2.494,4.1,4.1,0,0,0-1.057-2.812,2.325,2.325,0,0,0-1.4-.571,1.86,1.86,0,0,0-1.216.539Z" transform="translate(6.778 8.127)"/><path class="b" d="M127.58,142.82h2.452c.254,0,.328,0,.328.127s-.127.169-.232.2c-.571.137-.655.3-.666.423a30.654,30.654,0,0,0-.074,3.171c0,.729,0,1.6.053,1.955a.455.455,0,0,0,.381.412,6.672,6.672,0,0,0,.877.053,4.475,4.475,0,0,0,.761-.053.624.624,0,0,0,.328-.148,3.847,3.847,0,0,0,.666-.824.433.433,0,0,1,.285-.211c.074,0,.085.116,0,.285-.116.37-.275.951-.338,1.247a.486.486,0,0,1-.243.18c-.159,0-1.057-.074-3.255-.074-.507,0-1.237.063-1.564.063s-.317,0-.317-.137.1-.169.264-.2c.581-.106.676-.3.729-.761v-4.693c0-.349-.063-.528-.55-.645-.2,0-.3-.127-.3-.2S127.39,142.82,127.58,142.82Z" transform="translate(7.235 8.135)"/><path class="b" d="M134.452,143.972c0-.507,0-.666-.55-.793-.254-.063-.317-.137-.317-.211s.148-.148.338-.148h2.463c.18,0,.328,0,.328.148s-.148.18-.328.211c-.528.1-.56.37-.581.645s0,.634,0,2.452v2.051c0,.624.106.75.7.909a.269.269,0,0,1,.3.222c0,.1-.2.137-.328.137a13.221,13.221,0,0,0-1.585,0,5.884,5.884,0,0,1-1.057,0c-.433,0-.328-.074-.328-.18s.1-.148.317-.2c.486-.116.56-.338.581-.793s0-1.49,0-2.389A12.636,12.636,0,0,0,134.452,143.972Z" transform="translate(7.604 8.135)"/><path class="b" d="M137.877,142.791h2.516c.137,0,.254,0,.254.127s-.074.169-.264.222c-.476.127-.465.275-.381.571.159.518,1.289,3.329,1.543,3.858h.1c.011,0,1.2-2.78,1.522-3.625.233-.624,0-.666-.476-.824a.257.257,0,0,1-.233-.18c0-.063.116-.159.285-.159h1.85c.222,0,.317.063.317.148s-.106.169-.285.2c-.476.116-.7.338-.962.888s-.888,1.8-1.522,3.361c-.349.835-.581,1.437-.793,2.114a.363.363,0,0,1-.285.275c-.106,0-.211-.18-.233-.254a13.29,13.29,0,0,0-.55-1.617c-.359-.962-1.173-2.917-1.575-3.879-.222-.5-.38-.729-.856-.867-.127,0-.275-.074-.275-.19S137.718,142.791,137.877,142.791Z" transform="translate(7.836 8.133)"/><path class="b" d="M149.118,142.843a9.028,9.028,0,0,0,.93-.063s.116.063.127.137,0,.92,0,1.131-.074.3-.169.3-.18-.159-.2-.264c-.137-.592-.433-.75-.676-.793a9.81,9.81,0,0,0-1.469-.063s-.127,0-.137.3,0,1.733,0,2.325a.1.1,0,0,0,.106.106h.846c.75,0,.729,0,.93-.507.063-.159.137-.275.233-.275s.116.18.106.3v1.448c0,.264,0,.317-.137.317s-.169-.127-.2-.233c-.137-.465-.275-.539-.687-.571s-.729,0-1.057,0c0,0-.137.106-.137.127a13.6,13.6,0,0,0,0,1.48,8.527,8.527,0,0,0,0,.867.391.391,0,0,0,.233.254,4.928,4.928,0,0,0,.856.063,3.169,3.169,0,0,0,.972-.1,1.617,1.617,0,0,0,.835-.782c.148-.275.243-.37.328-.37s.1.222.085.307a8.718,8.718,0,0,1-.4,1.226c0,.074-.2.137-.254.137h-4.735c-.2,0-.359,0-.359-.137s.137-.169.317-.211c.539-.127.676-.233.719-.8s.085-1.247.085-2.568v-2.04a.611.611,0,0,0-.56-.676c-.222,0-.338-.085-.338-.19s.18-.159.328-.159h1.913Z" transform="translate(8.264 8.133)"/><path class="b" d="M161.784,146.105a3.5,3.5,0,0,1-1.332,2.875,3.985,3.985,0,0,1-2.315.761,3.731,3.731,0,0,1-2.748-1.131,3.5,3.5,0,0,1-.909-2.431,3.319,3.319,0,0,1,1.363-2.748,3.953,3.953,0,0,1,2.251-.761,3.509,3.509,0,0,1,3.689,3.435Zm-5.147-2.526a3.287,3.287,0,0,0-.74,2.378c0,1.628.994,3.393,2.537,3.393a1.522,1.522,0,0,0,1.057-.433,3.636,3.636,0,0,0,.814-2.494,4.1,4.1,0,0,0-1.057-2.812,2.325,2.325,0,0,0-1.4-.571A1.86,1.86,0,0,0,156.636,143.579Z" transform="translate(8.799 8.126)"/><path class="b" d="M163.962,143.972c0-.507,0-.666-.55-.793-.254-.063-.317-.137-.317-.211s.148-.148.338-.148H165.9c.18,0,.328,0,.328.148s-.148.18-.328.211c-.528.1-.56.37-.581.645s0,.634,0,2.452v2.051c0,.624.106.75.7.909a.269.269,0,0,1,.3.222c0,.1-.2.137-.328.137a13.219,13.219,0,0,0-1.585,0,5.884,5.884,0,0,1-1.057,0c-.433,0-.328-.074-.328-.18s.1-.148.317-.2c.486-.116.56-.338.581-.793s.053-1.49.053-2.389C163.994,145.473,163.994,144.363,163.962,143.972Z" transform="translate(9.285 8.135)"/><path class="b" d="M168.213,142.82h2.452c.254,0,.328,0,.328.127s-.127.169-.233.2c-.571.137-.655.3-.666.423-.074.528-.074,1.6-.074,3.171V148.7a.415.415,0,0,0,.381.412,6.764,6.764,0,0,0,.877.053,4.463,4.463,0,0,0,.761-.053.624.624,0,0,0,.328-.148,4.163,4.163,0,0,0,.666-.824.423.423,0,0,1,.285-.211c.074,0,.085.116,0,.285-.116.37-.275.951-.338,1.247a.5.5,0,0,1-.243.18c-.159,0-1.057-.074-3.255-.074-.507,0-1.237.063-1.564.063s-.317,0-.317-.137.1-.169.264-.2c.581-.106.676-.3.729-.761v-4.693c0-.349-.063-.528-.55-.645-.2,0-.3-.127-.3-.2S168.023,142.82,168.213,142.82Z" transform="translate(9.547 8.135)"/><path class="b" d="M22.725,150.713c.19.719.19,1.363-.645,1.363-2.114,0-4.735-.19-5.454-.909a1.522,1.522,0,0,1-.454-.972V138.653C9.291,138.653,0,134.352,0,123.962c0-7.853,5.845-13.741,12.927-15.971.19-.063.254.063.254.328v2.4c0,.2-.127.264-.254.328-4.809,2.336-7.272,5.591-7.272,11.1,0,9.935,5.391,14.026,10.57,14.026,0-4.936.063-10.844.063-17.789,0-7.473,2.114-10.39,7.272-10.39,7.272,0,14.026,7.335,14.026,15.389,0,10.908-8.826,15.326-16.362,15.326a70.394,70.394,0,0,0,1.5,12.007Zm-1.585-14.544c6.944,0,10.707-4.482,10.707-13.962,0-6.162-3.435-11.88-7.991-11.88-2.4,0-2.79,2.4-2.79,4.545Z" transform="translate(0 6.15)"/><path class="b" d="M65.8,120.967c0,9.745-4.608,17.725-13.307,17.725-8.371,0-11.1-4.746-11.1-14.29V112.776c0-.592-.645-.782-1.173-.846a17.97,17.97,0,0,0-2.664-.264c-.328,0-.455-.127-.455-.317v-.592c0-.254.127-.328.391-.381l7.959-2.2a3.317,3.317,0,0,1,.708-.127c.19,0,.454,0,.454.391,0,3.308-.063,8.308-.063,15.971s1.818,11.753,6.49,11.753c5.771,0,9.09-6.173,9.09-11.362,0-6.691-2.473-11.69-4.936-14.29-.254-.264-.782-.909.328-1.3l3.953-1.057a3.943,3.943,0,0,1,.772-.127.9.9,0,0,1,.846.581A27.037,27.037,0,0,1,65.8,120.967Z" transform="translate(2.113 6.154)"/><path class="b" d="M103.421,110.153c0-.708.328-1.363.972-1.363h3.171c.645,0,.972.391.972,1.363v20.981c0,2.336.127,4.418,2.6,4.418a7.166,7.166,0,0,0,2.526-.581c.454-.2.719-.2.719.127v1.755a.793.793,0,0,1-.391.708,9.428,9.428,0,0,1-4.355,1.057c-3.308,0-6.236-1.427-6.236-6.553Z" transform="translate(5.89 6.197)"/><path class="b" d="M141.944,135.478a5.222,5.222,0,0,0,2.114-.454,1.784,1.784,0,0,1,.454-.127.233.233,0,0,1,.264.254v1.881a.645.645,0,0,1-.391.518,10.263,10.263,0,0,1-5.2,1.173c-2.4,0-4.228-.909-6.1-3.118a114.925,114.925,0,0,1-8.456-11.362V136c0,.645,0,1.427-.455,1.818a8.255,8.255,0,0,1-4.154.909c-.518,0-.581-.264-.581-1.057V112.8c0-.592-.645-.782-1.173-.846a18.223,18.223,0,0,0-2.664-.264c-.328,0-.454-.127-.454-.328v-.592c0-.254.127-.328.391-.381s6.944-1.945,7.917-2.209a3.329,3.329,0,0,1,.719-.127c.19,0,.455,0,.455.391v13.571c2.209-4.154,12.472-13.962,17.345-13.962.581,0,.909.454.909,1.237v3.372c0,.846-.454,1.057-.846,1.057-4.936,0-10.57,3.573-13.18,7.208,3.245,4.809,5.285,7.927,7.145,10.126C137.262,132.6,140.126,135.478,141.944,135.478Z" transform="translate(6.559 6.155)"/><path class="b" d="M158.517,108c9.026,0,15.389,5.972,15.389,15.189,0,7.927-5.908,15.453-14.544,15.453s-15.453-5.972-15.453-15.2C143.91,115.071,149.818,108,158.517,108Zm0,2.336c-3.509,0-8.635,2.864-8.635,12.472,0,8.836,4.291,13.508,9.354,13.508,3.5,0,8.7-2.463,8.7-12.462,0-10.221-4.809-13.529-9.418-13.529Z" transform="translate(8.197 6.152)"/><path class="b" d="M194.24,142.077c0-1.881-1.564-2.928-3.382-3.509-4.608-1.427-14.607-2.59-14.607-13.888,0-9.513,6.426-16.689,16.911-16.689,2.114,0,5.782.972,6.881,2.008a1.141,1.141,0,0,1-.127,1.628c-1.755,1.755-2.526,2.114-3.5,2.114-1.363,0-3.509-2.991-6.5-2.991-5.285,0-8.117,6.627-8.117,10.982,0,7.663,3.509,10,11.489,12.462,3.171.972,5.644,2.272,5.644,5.982,0,2.59-2.336,5.644-5.126,7.4a.306.306,0,0,1-.391,0L191.84,146.3a.285.285,0,0,1,.063-.391,4.429,4.429,0,0,0,2.336-3.837Z" transform="translate(10.039 6.151)"/><path class="b" d="M89.724,113.008c2.664.106,4.08.19,5.581.317h0c5.285.391,5.285-2.9,5.285-2.9v-.867c0-.454-.127-.782-.782-.782H83.879c-7.991,0-15.2,4.608-15.2,13.741,0,8.9,5.972,16.172,14.417,16.172A13.836,13.836,0,0,0,97,125.184C97,119.434,94.332,115.735,89.724,113.008Zm-6.173,23.179c-6.173,0-9.153-6.173-9.153-12.271,0-8.054,3.89-12.472,12.208-10.971,3.7,2.473,5.063,6.627,5.063,10.971C91.669,129.095,89.661,136.187,83.551,136.187Z" transform="translate(3.912 6.196)"/></g></svg>